<svg width="120" height="137" viewBox="0 0 120 137" fill="none" xmlns="http://www.w3.org/2000/svg">
<path d="M120 68.3805C120 60.431 110.045 52.8974 94.7819 48.2256C98.3041 32.6691 96.7387 20.2924 89.841 16.3299C88.2511 15.4005 86.3922 14.9602 84.362 14.9602V20.4147C85.4872 20.4147 86.3922 20.6349 87.1504 21.0507C90.477 22.9586 91.9201 30.2231 90.795 39.5668C90.5259 41.866 90.0856 44.2875 89.5475 46.758C84.7534 45.5839 79.519 44.6789 74.0155 44.0919C70.7134 39.5668 67.289 35.4575 63.8402 31.8619C71.8141 24.4506 79.2988 20.3903 84.3865 20.3903V14.9357C77.66 14.9357 68.8545 19.7299 59.9511 28.0462C51.0477 19.7788 42.2422 15.0336 35.5157 15.0336V20.4881C40.5789 20.4881 48.0881 24.524 56.062 31.8864C52.6376 35.482 49.2132 39.5668 45.9601 44.0919C40.4321 44.6789 35.1977 45.5839 30.4036 46.7824C29.841 44.3365 29.4252 41.9639 29.1317 39.6891C27.9821 30.3454 29.4007 23.0809 32.7028 21.1485C33.4366 20.7083 34.3905 20.5126 35.5157 20.5126V15.058C33.4611 15.058 31.6021 15.4983 29.9878 16.4278C23.1146 20.3903 21.5736 32.7425 25.1203 48.25C9.90624 52.9463 0 60.4555 0 68.3805C0 76.3299 9.95515 83.8636 25.2181 88.5354C21.6959 104.092 23.2613 116.469 30.159 120.431C31.7489 121.361 33.6078 121.801 35.6625 121.801C42.3889 121.801 51.1945 117.007 60.0978 108.69C69.0012 116.958 77.8068 121.703 84.5332 121.703C86.5879 121.703 88.4468 121.263 90.0612 120.333C96.9344 116.371 98.4753 104.018 94.9287 88.5109C110.094 83.8391 120 76.3055 120 68.3805ZM88.1533 52.0658C87.2483 55.2211 86.1231 58.4743 84.8512 61.7274C83.8483 59.7706 82.7966 57.8138 81.647 55.8571C80.5218 53.9003 79.3233 51.9924 78.1248 50.1334C81.5981 50.6471 84.949 51.2831 88.1533 52.0658ZM76.9507 78.1155C75.0428 81.4176 73.086 84.5484 71.0559 87.4592C67.4113 87.7771 63.7179 87.9484 60 87.9484C56.3066 87.9484 52.6131 87.7772 48.9931 87.4836C46.9629 84.5729 44.9817 81.4665 43.0738 78.1889C41.2148 74.9846 39.5271 71.7315 37.9861 68.4539C39.5027 65.1762 41.2148 61.8986 43.0493 58.6944C44.9572 55.3923 46.914 52.2615 48.9441 49.3507C52.5887 49.0328 56.2821 48.8615 60 48.8615C63.6934 48.8615 67.3869 49.0328 71.0069 49.3263C73.0371 52.237 75.0183 55.3434 76.9262 58.621C78.7852 61.8253 80.4729 65.0784 82.0139 68.356C80.4729 71.6336 78.7852 74.9113 76.9507 78.1155ZM84.8512 74.9357C86.172 78.2133 87.2972 81.491 88.2267 84.6707C85.0224 85.4535 81.647 86.1139 78.1492 86.6275C79.3477 84.7441 80.5463 82.8118 81.6714 80.8306C82.7966 78.8738 83.8483 76.8925 84.8512 74.9357ZM60.0489 101.034C57.7742 98.6862 55.4994 96.069 53.2491 93.2072C55.4505 93.3051 57.7008 93.3785 59.9755 93.3785C62.2748 93.3785 64.5495 93.3295 66.7754 93.2072C64.574 96.069 62.2992 98.6862 60.0489 101.034ZM41.8508 86.6275C38.3775 86.1139 35.0265 85.4779 31.8223 84.6952C32.7273 81.5399 33.8524 78.2867 35.1243 75.0336C36.1272 76.9904 37.179 78.9471 38.3286 80.9039C39.4782 82.8607 40.6523 84.7686 41.8508 86.6275ZM59.9266 35.7266C62.2014 38.0747 64.4762 40.6919 66.7265 43.5537C64.5251 43.4559 62.2748 43.3825 60 43.3825C57.7008 43.3825 55.426 43.4314 53.2002 43.5537C55.4016 40.6919 57.6763 38.0747 59.9266 35.7266ZM41.8263 50.1334C40.6278 52.0169 39.4293 53.9492 38.3041 55.9304C37.179 57.8872 36.1272 59.844 35.1243 61.8008C33.8035 58.5232 32.6784 55.2456 31.7489 52.0658C34.9531 51.3075 38.3286 50.6471 41.8263 50.1334ZM19.6902 80.7572C11.0314 77.0637 5.43009 72.2207 5.43009 68.3805C5.43009 64.5403 11.0314 59.6728 19.6902 56.0038C21.7937 55.0988 24.0929 54.2916 26.4656 53.5334C27.8598 58.3275 29.6943 63.3173 31.969 68.4294C29.7187 73.5171 27.9087 78.4824 26.5389 83.2521C24.1174 82.4938 21.8182 81.6622 19.6902 80.7572ZM32.8496 115.71C29.523 113.802 28.0799 106.538 29.2051 97.1942C29.4741 94.895 29.9144 92.4734 30.4525 90.003C35.2466 91.1771 40.481 92.0821 45.9845 92.6691C49.2866 97.1942 52.711 101.303 56.1598 104.899C48.1859 112.31 40.7012 116.371 35.6135 116.371C34.5128 116.346 33.5834 116.126 32.8496 115.71ZM90.8683 97.0719C92.0179 106.416 90.5993 113.68 87.2972 115.612C86.5634 116.053 85.6095 116.248 84.4843 116.248C79.4211 116.248 71.912 112.213 63.938 104.85C67.3624 101.255 70.7868 97.1697 74.04 92.6447C79.5679 92.0576 84.8023 91.1526 89.5964 89.9541C90.159 92.4245 90.5993 94.7971 90.8683 97.0719ZM100.285 80.7572C98.1818 81.6622 95.8826 82.4694 93.51 83.2276C92.1158 78.4335 90.2813 73.4437 88.0065 68.3316C90.2568 63.2439 92.0669 58.2786 93.4366 53.5089C95.8581 54.2672 98.1574 55.0988 100.31 56.0038C108.969 59.6972 114.57 64.5403 114.57 68.3805C114.545 72.2207 108.944 77.0882 100.285 80.7572Z" fill="#61DAFB"/>
<path d="M59.9755 79.5586C66.1491 79.5586 71.1537 74.554 71.1537 68.3805C71.1537 62.207 66.1491 57.2023 59.9755 57.2023C53.802 57.2023 48.7974 62.207 48.7974 68.3805C48.7974 74.554 53.802 79.5586 59.9755 79.5586Z" fill="#61DAFB"/>
</svg>
